%TF.GenerationSoftware,KiCad,Pcbnew,7.0.2*%
%TF.CreationDate,2024-06-22T12:15:53+01:00*%
%TF.ProjectId,USB HID,55534220-4849-4442-9e6b-696361645f70,rev?*%
%TF.SameCoordinates,Original*%
%TF.FileFunction,Legend,Bot*%
%TF.FilePolarity,Positive*%
%FSLAX46Y46*%
G04 Gerber Fmt 4.6, Leading zero omitted, Abs format (unit mm)*
G04 Created by KiCad (PCBNEW 7.0.2) date 2024-06-22 12:15:53*
%MOMM*%
%LPD*%
G01*
G04 APERTURE LIST*
%ADD10C,0.150000*%
G04 APERTURE END LIST*
D10*
X132190690Y-73522119D02*
X132190690Y-74236404D01*
X132190690Y-74236404D02*
X132238309Y-74379261D01*
X132238309Y-74379261D02*
X132333547Y-74474500D01*
X132333547Y-74474500D02*
X132476404Y-74522119D01*
X132476404Y-74522119D02*
X132571642Y-74522119D01*
X131762118Y-74236404D02*
X131285928Y-74236404D01*
X131857356Y-74522119D02*
X131524023Y-73522119D01*
X131524023Y-73522119D02*
X131190690Y-74522119D01*
X130381166Y-74522119D02*
X130857356Y-74522119D01*
X130857356Y-74522119D02*
X130857356Y-73522119D01*
X129571642Y-74522119D02*
X130047832Y-74522119D01*
X130047832Y-74522119D02*
X130047832Y-73522119D01*
X129238308Y-73998309D02*
X128904975Y-73998309D01*
X128762118Y-74522119D02*
X129238308Y-74522119D01*
X129238308Y-74522119D02*
X129238308Y-73522119D01*
X129238308Y-73522119D02*
X128762118Y-73522119D01*
X127762118Y-74522119D02*
X128095451Y-74045928D01*
X128333546Y-74522119D02*
X128333546Y-73522119D01*
X128333546Y-73522119D02*
X127952594Y-73522119D01*
X127952594Y-73522119D02*
X127857356Y-73569738D01*
X127857356Y-73569738D02*
X127809737Y-73617357D01*
X127809737Y-73617357D02*
X127762118Y-73712595D01*
X127762118Y-73712595D02*
X127762118Y-73855452D01*
X127762118Y-73855452D02*
X127809737Y-73950690D01*
X127809737Y-73950690D02*
X127857356Y-73998309D01*
X127857356Y-73998309D02*
X127952594Y-74045928D01*
X127952594Y-74045928D02*
X128333546Y-74045928D01*
X127476403Y-73522119D02*
X126904975Y-73522119D01*
X127190689Y-74522119D02*
X127190689Y-73522119D01*
X126381165Y-73522119D02*
X126190689Y-73522119D01*
X126190689Y-73522119D02*
X126095451Y-73569738D01*
X126095451Y-73569738D02*
X126000213Y-73664976D01*
X126000213Y-73664976D02*
X125952594Y-73855452D01*
X125952594Y-73855452D02*
X125952594Y-74188785D01*
X125952594Y-74188785D02*
X126000213Y-74379261D01*
X126000213Y-74379261D02*
X126095451Y-74474500D01*
X126095451Y-74474500D02*
X126190689Y-74522119D01*
X126190689Y-74522119D02*
X126381165Y-74522119D01*
X126381165Y-74522119D02*
X126476403Y-74474500D01*
X126476403Y-74474500D02*
X126571641Y-74379261D01*
X126571641Y-74379261D02*
X126619260Y-74188785D01*
X126619260Y-74188785D02*
X126619260Y-73855452D01*
X126619260Y-73855452D02*
X126571641Y-73664976D01*
X126571641Y-73664976D02*
X126476403Y-73569738D01*
X126476403Y-73569738D02*
X126381165Y-73522119D01*
X125524022Y-74522119D02*
X125524022Y-73522119D01*
X125524022Y-73522119D02*
X124952594Y-74522119D01*
X124952594Y-74522119D02*
X124952594Y-73522119D01*
X137404975Y-75142119D02*
X137404975Y-75951642D01*
X137404975Y-75951642D02*
X137357356Y-76046880D01*
X137357356Y-76046880D02*
X137309737Y-76094500D01*
X137309737Y-76094500D02*
X137214499Y-76142119D01*
X137214499Y-76142119D02*
X137024023Y-76142119D01*
X137024023Y-76142119D02*
X136928785Y-76094500D01*
X136928785Y-76094500D02*
X136881166Y-76046880D01*
X136881166Y-76046880D02*
X136833547Y-75951642D01*
X136833547Y-75951642D02*
X136833547Y-75142119D01*
X136404975Y-76094500D02*
X136262118Y-76142119D01*
X136262118Y-76142119D02*
X136024023Y-76142119D01*
X136024023Y-76142119D02*
X135928785Y-76094500D01*
X135928785Y-76094500D02*
X135881166Y-76046880D01*
X135881166Y-76046880D02*
X135833547Y-75951642D01*
X135833547Y-75951642D02*
X135833547Y-75856404D01*
X135833547Y-75856404D02*
X135881166Y-75761166D01*
X135881166Y-75761166D02*
X135928785Y-75713547D01*
X135928785Y-75713547D02*
X136024023Y-75665928D01*
X136024023Y-75665928D02*
X136214499Y-75618309D01*
X136214499Y-75618309D02*
X136309737Y-75570690D01*
X136309737Y-75570690D02*
X136357356Y-75523071D01*
X136357356Y-75523071D02*
X136404975Y-75427833D01*
X136404975Y-75427833D02*
X136404975Y-75332595D01*
X136404975Y-75332595D02*
X136357356Y-75237357D01*
X136357356Y-75237357D02*
X136309737Y-75189738D01*
X136309737Y-75189738D02*
X136214499Y-75142119D01*
X136214499Y-75142119D02*
X135976404Y-75142119D01*
X135976404Y-75142119D02*
X135833547Y-75189738D01*
X135071642Y-75618309D02*
X134928785Y-75665928D01*
X134928785Y-75665928D02*
X134881166Y-75713547D01*
X134881166Y-75713547D02*
X134833547Y-75808785D01*
X134833547Y-75808785D02*
X134833547Y-75951642D01*
X134833547Y-75951642D02*
X134881166Y-76046880D01*
X134881166Y-76046880D02*
X134928785Y-76094500D01*
X134928785Y-76094500D02*
X135024023Y-76142119D01*
X135024023Y-76142119D02*
X135404975Y-76142119D01*
X135404975Y-76142119D02*
X135404975Y-75142119D01*
X135404975Y-75142119D02*
X135071642Y-75142119D01*
X135071642Y-75142119D02*
X134976404Y-75189738D01*
X134976404Y-75189738D02*
X134928785Y-75237357D01*
X134928785Y-75237357D02*
X134881166Y-75332595D01*
X134881166Y-75332595D02*
X134881166Y-75427833D01*
X134881166Y-75427833D02*
X134928785Y-75523071D01*
X134928785Y-75523071D02*
X134976404Y-75570690D01*
X134976404Y-75570690D02*
X135071642Y-75618309D01*
X135071642Y-75618309D02*
X135404975Y-75618309D01*
X133643070Y-75761166D02*
X132881166Y-75761166D01*
X132404975Y-75475452D02*
X131643071Y-75761166D01*
X131643071Y-75761166D02*
X132404975Y-76046880D01*
X130452594Y-76094500D02*
X130309737Y-76142119D01*
X130309737Y-76142119D02*
X130071642Y-76142119D01*
X130071642Y-76142119D02*
X129976404Y-76094500D01*
X129976404Y-76094500D02*
X129928785Y-76046880D01*
X129928785Y-76046880D02*
X129881166Y-75951642D01*
X129881166Y-75951642D02*
X129881166Y-75856404D01*
X129881166Y-75856404D02*
X129928785Y-75761166D01*
X129928785Y-75761166D02*
X129976404Y-75713547D01*
X129976404Y-75713547D02*
X130071642Y-75665928D01*
X130071642Y-75665928D02*
X130262118Y-75618309D01*
X130262118Y-75618309D02*
X130357356Y-75570690D01*
X130357356Y-75570690D02*
X130404975Y-75523071D01*
X130404975Y-75523071D02*
X130452594Y-75427833D01*
X130452594Y-75427833D02*
X130452594Y-75332595D01*
X130452594Y-75332595D02*
X130404975Y-75237357D01*
X130404975Y-75237357D02*
X130357356Y-75189738D01*
X130357356Y-75189738D02*
X130262118Y-75142119D01*
X130262118Y-75142119D02*
X130024023Y-75142119D01*
X130024023Y-75142119D02*
X129881166Y-75189738D01*
X129071642Y-76094500D02*
X129166880Y-76142119D01*
X129166880Y-76142119D02*
X129357356Y-76142119D01*
X129357356Y-76142119D02*
X129452594Y-76094500D01*
X129452594Y-76094500D02*
X129500213Y-75999261D01*
X129500213Y-75999261D02*
X129500213Y-75618309D01*
X129500213Y-75618309D02*
X129452594Y-75523071D01*
X129452594Y-75523071D02*
X129357356Y-75475452D01*
X129357356Y-75475452D02*
X129166880Y-75475452D01*
X129166880Y-75475452D02*
X129071642Y-75523071D01*
X129071642Y-75523071D02*
X129024023Y-75618309D01*
X129024023Y-75618309D02*
X129024023Y-75713547D01*
X129024023Y-75713547D02*
X129500213Y-75808785D01*
X128595451Y-76142119D02*
X128595451Y-75475452D01*
X128595451Y-75665928D02*
X128547832Y-75570690D01*
X128547832Y-75570690D02*
X128500213Y-75523071D01*
X128500213Y-75523071D02*
X128404975Y-75475452D01*
X128404975Y-75475452D02*
X128309737Y-75475452D01*
X127976403Y-76142119D02*
X127976403Y-75475452D01*
X127976403Y-75142119D02*
X128024022Y-75189738D01*
X128024022Y-75189738D02*
X127976403Y-75237357D01*
X127976403Y-75237357D02*
X127928784Y-75189738D01*
X127928784Y-75189738D02*
X127976403Y-75142119D01*
X127976403Y-75142119D02*
X127976403Y-75237357D01*
X127071642Y-76142119D02*
X127071642Y-75618309D01*
X127071642Y-75618309D02*
X127119261Y-75523071D01*
X127119261Y-75523071D02*
X127214499Y-75475452D01*
X127214499Y-75475452D02*
X127404975Y-75475452D01*
X127404975Y-75475452D02*
X127500213Y-75523071D01*
X127071642Y-76094500D02*
X127166880Y-76142119D01*
X127166880Y-76142119D02*
X127404975Y-76142119D01*
X127404975Y-76142119D02*
X127500213Y-76094500D01*
X127500213Y-76094500D02*
X127547832Y-75999261D01*
X127547832Y-75999261D02*
X127547832Y-75904023D01*
X127547832Y-75904023D02*
X127500213Y-75808785D01*
X127500213Y-75808785D02*
X127404975Y-75761166D01*
X127404975Y-75761166D02*
X127166880Y-75761166D01*
X127166880Y-75761166D02*
X127071642Y-75713547D01*
X126452594Y-76142119D02*
X126547832Y-76094500D01*
X126547832Y-76094500D02*
X126595451Y-75999261D01*
X126595451Y-75999261D02*
X126595451Y-75142119D01*
X125309736Y-75761166D02*
X124547832Y-75761166D01*
X124071641Y-75475452D02*
X123309737Y-75761166D01*
X123309737Y-75761166D02*
X124071641Y-76046880D01*
X122071641Y-76142119D02*
X122071641Y-75142119D01*
X122071641Y-75618309D02*
X121500213Y-75618309D01*
X121500213Y-76142119D02*
X121500213Y-75142119D01*
X121024022Y-76142119D02*
X121024022Y-75142119D01*
X120547832Y-76142119D02*
X120547832Y-75142119D01*
X120547832Y-75142119D02*
X120309737Y-75142119D01*
X120309737Y-75142119D02*
X120166880Y-75189738D01*
X120166880Y-75189738D02*
X120071642Y-75284976D01*
X120071642Y-75284976D02*
X120024023Y-75380214D01*
X120024023Y-75380214D02*
X119976404Y-75570690D01*
X119976404Y-75570690D02*
X119976404Y-75713547D01*
X119976404Y-75713547D02*
X120024023Y-75904023D01*
X120024023Y-75904023D02*
X120071642Y-75999261D01*
X120071642Y-75999261D02*
X120166880Y-76094500D01*
X120166880Y-76094500D02*
X120309737Y-76142119D01*
X120309737Y-76142119D02*
X120547832Y-76142119D01*
M02*
