%TF.GenerationSoftware,KiCad,Pcbnew,7.0.2*%
%TF.CreationDate,2024-06-22T12:15:53+01:00*%
%TF.ProjectId,USB HID,55534220-4849-4442-9e6b-696361645f70,rev?*%
%TF.SameCoordinates,Original*%
%TF.FileFunction,Legend,Top*%
%TF.FilePolarity,Positive*%
%FSLAX46Y46*%
G04 Gerber Fmt 4.6, Leading zero omitted, Abs format (unit mm)*
G04 Created by KiCad (PCBNEW 7.0.2) date 2024-06-22 12:15:53*
%MOMM*%
%LPD*%
G01*
G04 APERTURE LIST*
%ADD10C,0.150000*%
%ADD11C,0.254000*%
%ADD12C,0.120000*%
%ADD13C,0.200000*%
%ADD14C,0.100000*%
G04 APERTURE END LIST*
D10*
X128833977Y-81110000D02*
X128976834Y-81157619D01*
X128976834Y-81157619D02*
X129214929Y-81157619D01*
X129214929Y-81157619D02*
X129310167Y-81110000D01*
X129310167Y-81110000D02*
X129357786Y-81062380D01*
X129357786Y-81062380D02*
X129405405Y-80967142D01*
X129405405Y-80967142D02*
X129405405Y-80871904D01*
X129405405Y-80871904D02*
X129357786Y-80776666D01*
X129357786Y-80776666D02*
X129310167Y-80729047D01*
X129310167Y-80729047D02*
X129214929Y-80681428D01*
X129214929Y-80681428D02*
X129024453Y-80633809D01*
X129024453Y-80633809D02*
X128929215Y-80586190D01*
X128929215Y-80586190D02*
X128881596Y-80538571D01*
X128881596Y-80538571D02*
X128833977Y-80443333D01*
X128833977Y-80443333D02*
X128833977Y-80348095D01*
X128833977Y-80348095D02*
X128881596Y-80252857D01*
X128881596Y-80252857D02*
X128929215Y-80205238D01*
X128929215Y-80205238D02*
X129024453Y-80157619D01*
X129024453Y-80157619D02*
X129262548Y-80157619D01*
X129262548Y-80157619D02*
X129405405Y-80205238D01*
X129833977Y-80633809D02*
X130167310Y-80633809D01*
X130310167Y-81157619D02*
X129833977Y-81157619D01*
X129833977Y-81157619D02*
X129833977Y-80157619D01*
X129833977Y-80157619D02*
X130310167Y-80157619D01*
X131310167Y-81157619D02*
X130976834Y-80681428D01*
X130738739Y-81157619D02*
X130738739Y-80157619D01*
X130738739Y-80157619D02*
X131119691Y-80157619D01*
X131119691Y-80157619D02*
X131214929Y-80205238D01*
X131214929Y-80205238D02*
X131262548Y-80252857D01*
X131262548Y-80252857D02*
X131310167Y-80348095D01*
X131310167Y-80348095D02*
X131310167Y-80490952D01*
X131310167Y-80490952D02*
X131262548Y-80586190D01*
X131262548Y-80586190D02*
X131214929Y-80633809D01*
X131214929Y-80633809D02*
X131119691Y-80681428D01*
X131119691Y-80681428D02*
X130738739Y-80681428D01*
X131738739Y-81157619D02*
X131738739Y-80157619D01*
X132167310Y-80871904D02*
X132643500Y-80871904D01*
X132072072Y-81157619D02*
X132405405Y-80157619D01*
X132405405Y-80157619D02*
X132738738Y-81157619D01*
X133548262Y-81157619D02*
X133072072Y-81157619D01*
X133072072Y-81157619D02*
X133072072Y-80157619D01*
X133881596Y-80776666D02*
X134643501Y-80776666D01*
X135119691Y-80490952D02*
X135881596Y-80776666D01*
X135881596Y-80776666D02*
X135119691Y-81062380D01*
X136357786Y-80157619D02*
X136357786Y-80967142D01*
X136357786Y-80967142D02*
X136405405Y-81062380D01*
X136405405Y-81062380D02*
X136453024Y-81110000D01*
X136453024Y-81110000D02*
X136548262Y-81157619D01*
X136548262Y-81157619D02*
X136738738Y-81157619D01*
X136738738Y-81157619D02*
X136833976Y-81110000D01*
X136833976Y-81110000D02*
X136881595Y-81062380D01*
X136881595Y-81062380D02*
X136929214Y-80967142D01*
X136929214Y-80967142D02*
X136929214Y-80157619D01*
X137357786Y-81110000D02*
X137500643Y-81157619D01*
X137500643Y-81157619D02*
X137738738Y-81157619D01*
X137738738Y-81157619D02*
X137833976Y-81110000D01*
X137833976Y-81110000D02*
X137881595Y-81062380D01*
X137881595Y-81062380D02*
X137929214Y-80967142D01*
X137929214Y-80967142D02*
X137929214Y-80871904D01*
X137929214Y-80871904D02*
X137881595Y-80776666D01*
X137881595Y-80776666D02*
X137833976Y-80729047D01*
X137833976Y-80729047D02*
X137738738Y-80681428D01*
X137738738Y-80681428D02*
X137548262Y-80633809D01*
X137548262Y-80633809D02*
X137453024Y-80586190D01*
X137453024Y-80586190D02*
X137405405Y-80538571D01*
X137405405Y-80538571D02*
X137357786Y-80443333D01*
X137357786Y-80443333D02*
X137357786Y-80348095D01*
X137357786Y-80348095D02*
X137405405Y-80252857D01*
X137405405Y-80252857D02*
X137453024Y-80205238D01*
X137453024Y-80205238D02*
X137548262Y-80157619D01*
X137548262Y-80157619D02*
X137786357Y-80157619D01*
X137786357Y-80157619D02*
X137929214Y-80205238D01*
X138691119Y-80633809D02*
X138833976Y-80681428D01*
X138833976Y-80681428D02*
X138881595Y-80729047D01*
X138881595Y-80729047D02*
X138929214Y-80824285D01*
X138929214Y-80824285D02*
X138929214Y-80967142D01*
X138929214Y-80967142D02*
X138881595Y-81062380D01*
X138881595Y-81062380D02*
X138833976Y-81110000D01*
X138833976Y-81110000D02*
X138738738Y-81157619D01*
X138738738Y-81157619D02*
X138357786Y-81157619D01*
X138357786Y-81157619D02*
X138357786Y-80157619D01*
X138357786Y-80157619D02*
X138691119Y-80157619D01*
X138691119Y-80157619D02*
X138786357Y-80205238D01*
X138786357Y-80205238D02*
X138833976Y-80252857D01*
X138833976Y-80252857D02*
X138881595Y-80348095D01*
X138881595Y-80348095D02*
X138881595Y-80443333D01*
X138881595Y-80443333D02*
X138833976Y-80538571D01*
X138833976Y-80538571D02*
X138786357Y-80586190D01*
X138786357Y-80586190D02*
X138691119Y-80633809D01*
X138691119Y-80633809D02*
X138357786Y-80633809D01*
X118983095Y-71648619D02*
X118983095Y-72458142D01*
X118983095Y-72458142D02*
X119030714Y-72553380D01*
X119030714Y-72553380D02*
X119078333Y-72601000D01*
X119078333Y-72601000D02*
X119173571Y-72648619D01*
X119173571Y-72648619D02*
X119364047Y-72648619D01*
X119364047Y-72648619D02*
X119459285Y-72601000D01*
X119459285Y-72601000D02*
X119506904Y-72553380D01*
X119506904Y-72553380D02*
X119554523Y-72458142D01*
X119554523Y-72458142D02*
X119554523Y-71648619D01*
X119983095Y-72601000D02*
X120125952Y-72648619D01*
X120125952Y-72648619D02*
X120364047Y-72648619D01*
X120364047Y-72648619D02*
X120459285Y-72601000D01*
X120459285Y-72601000D02*
X120506904Y-72553380D01*
X120506904Y-72553380D02*
X120554523Y-72458142D01*
X120554523Y-72458142D02*
X120554523Y-72362904D01*
X120554523Y-72362904D02*
X120506904Y-72267666D01*
X120506904Y-72267666D02*
X120459285Y-72220047D01*
X120459285Y-72220047D02*
X120364047Y-72172428D01*
X120364047Y-72172428D02*
X120173571Y-72124809D01*
X120173571Y-72124809D02*
X120078333Y-72077190D01*
X120078333Y-72077190D02*
X120030714Y-72029571D01*
X120030714Y-72029571D02*
X119983095Y-71934333D01*
X119983095Y-71934333D02*
X119983095Y-71839095D01*
X119983095Y-71839095D02*
X120030714Y-71743857D01*
X120030714Y-71743857D02*
X120078333Y-71696238D01*
X120078333Y-71696238D02*
X120173571Y-71648619D01*
X120173571Y-71648619D02*
X120411666Y-71648619D01*
X120411666Y-71648619D02*
X120554523Y-71696238D01*
X121316428Y-72124809D02*
X121459285Y-72172428D01*
X121459285Y-72172428D02*
X121506904Y-72220047D01*
X121506904Y-72220047D02*
X121554523Y-72315285D01*
X121554523Y-72315285D02*
X121554523Y-72458142D01*
X121554523Y-72458142D02*
X121506904Y-72553380D01*
X121506904Y-72553380D02*
X121459285Y-72601000D01*
X121459285Y-72601000D02*
X121364047Y-72648619D01*
X121364047Y-72648619D02*
X120983095Y-72648619D01*
X120983095Y-72648619D02*
X120983095Y-71648619D01*
X120983095Y-71648619D02*
X121316428Y-71648619D01*
X121316428Y-71648619D02*
X121411666Y-71696238D01*
X121411666Y-71696238D02*
X121459285Y-71743857D01*
X121459285Y-71743857D02*
X121506904Y-71839095D01*
X121506904Y-71839095D02*
X121506904Y-71934333D01*
X121506904Y-71934333D02*
X121459285Y-72029571D01*
X121459285Y-72029571D02*
X121411666Y-72077190D01*
X121411666Y-72077190D02*
X121316428Y-72124809D01*
X121316428Y-72124809D02*
X120983095Y-72124809D01*
X121983095Y-72267666D02*
X122745000Y-72267666D01*
X123221190Y-71981952D02*
X123983095Y-72267666D01*
X123983095Y-72267666D02*
X123221190Y-72553380D01*
X124411666Y-72601000D02*
X124554523Y-72648619D01*
X124554523Y-72648619D02*
X124792618Y-72648619D01*
X124792618Y-72648619D02*
X124887856Y-72601000D01*
X124887856Y-72601000D02*
X124935475Y-72553380D01*
X124935475Y-72553380D02*
X124983094Y-72458142D01*
X124983094Y-72458142D02*
X124983094Y-72362904D01*
X124983094Y-72362904D02*
X124935475Y-72267666D01*
X124935475Y-72267666D02*
X124887856Y-72220047D01*
X124887856Y-72220047D02*
X124792618Y-72172428D01*
X124792618Y-72172428D02*
X124602142Y-72124809D01*
X124602142Y-72124809D02*
X124506904Y-72077190D01*
X124506904Y-72077190D02*
X124459285Y-72029571D01*
X124459285Y-72029571D02*
X124411666Y-71934333D01*
X124411666Y-71934333D02*
X124411666Y-71839095D01*
X124411666Y-71839095D02*
X124459285Y-71743857D01*
X124459285Y-71743857D02*
X124506904Y-71696238D01*
X124506904Y-71696238D02*
X124602142Y-71648619D01*
X124602142Y-71648619D02*
X124840237Y-71648619D01*
X124840237Y-71648619D02*
X124983094Y-71696238D01*
X125411666Y-72124809D02*
X125744999Y-72124809D01*
X125887856Y-72648619D02*
X125411666Y-72648619D01*
X125411666Y-72648619D02*
X125411666Y-71648619D01*
X125411666Y-71648619D02*
X125887856Y-71648619D01*
X126887856Y-72648619D02*
X126554523Y-72172428D01*
X126316428Y-72648619D02*
X126316428Y-71648619D01*
X126316428Y-71648619D02*
X126697380Y-71648619D01*
X126697380Y-71648619D02*
X126792618Y-71696238D01*
X126792618Y-71696238D02*
X126840237Y-71743857D01*
X126840237Y-71743857D02*
X126887856Y-71839095D01*
X126887856Y-71839095D02*
X126887856Y-71981952D01*
X126887856Y-71981952D02*
X126840237Y-72077190D01*
X126840237Y-72077190D02*
X126792618Y-72124809D01*
X126792618Y-72124809D02*
X126697380Y-72172428D01*
X126697380Y-72172428D02*
X126316428Y-72172428D01*
X127316428Y-72648619D02*
X127316428Y-71648619D01*
X127744999Y-72362904D02*
X128221189Y-72362904D01*
X127649761Y-72648619D02*
X127983094Y-71648619D01*
X127983094Y-71648619D02*
X128316427Y-72648619D01*
X129125951Y-72648619D02*
X128649761Y-72648619D01*
X128649761Y-72648619D02*
X128649761Y-71648619D01*
%TO.C,R1*%
X118446619Y-69635666D02*
X117970428Y-69968999D01*
X118446619Y-70207094D02*
X117446619Y-70207094D01*
X117446619Y-70207094D02*
X117446619Y-69826142D01*
X117446619Y-69826142D02*
X117494238Y-69730904D01*
X117494238Y-69730904D02*
X117541857Y-69683285D01*
X117541857Y-69683285D02*
X117637095Y-69635666D01*
X117637095Y-69635666D02*
X117779952Y-69635666D01*
X117779952Y-69635666D02*
X117875190Y-69683285D01*
X117875190Y-69683285D02*
X117922809Y-69730904D01*
X117922809Y-69730904D02*
X117970428Y-69826142D01*
X117970428Y-69826142D02*
X117970428Y-70207094D01*
X118446619Y-68683285D02*
X118446619Y-69254713D01*
X118446619Y-68968999D02*
X117446619Y-68968999D01*
X117446619Y-68968999D02*
X117589476Y-69064237D01*
X117589476Y-69064237D02*
X117684714Y-69159475D01*
X117684714Y-69159475D02*
X117732333Y-69254713D01*
%TO.C,R2*%
X118445619Y-80160666D02*
X117969428Y-80493999D01*
X118445619Y-80732094D02*
X117445619Y-80732094D01*
X117445619Y-80732094D02*
X117445619Y-80351142D01*
X117445619Y-80351142D02*
X117493238Y-80255904D01*
X117493238Y-80255904D02*
X117540857Y-80208285D01*
X117540857Y-80208285D02*
X117636095Y-80160666D01*
X117636095Y-80160666D02*
X117778952Y-80160666D01*
X117778952Y-80160666D02*
X117874190Y-80208285D01*
X117874190Y-80208285D02*
X117921809Y-80255904D01*
X117921809Y-80255904D02*
X117969428Y-80351142D01*
X117969428Y-80351142D02*
X117969428Y-80732094D01*
X117540857Y-79779713D02*
X117493238Y-79732094D01*
X117493238Y-79732094D02*
X117445619Y-79636856D01*
X117445619Y-79636856D02*
X117445619Y-79398761D01*
X117445619Y-79398761D02*
X117493238Y-79303523D01*
X117493238Y-79303523D02*
X117540857Y-79255904D01*
X117540857Y-79255904D02*
X117636095Y-79208285D01*
X117636095Y-79208285D02*
X117731333Y-79208285D01*
X117731333Y-79208285D02*
X117874190Y-79255904D01*
X117874190Y-79255904D02*
X118445619Y-79827332D01*
X118445619Y-79827332D02*
X118445619Y-79208285D01*
%TO.C,C1*%
X123147380Y-69657166D02*
X123195000Y-69704785D01*
X123195000Y-69704785D02*
X123242619Y-69847642D01*
X123242619Y-69847642D02*
X123242619Y-69942880D01*
X123242619Y-69942880D02*
X123195000Y-70085737D01*
X123195000Y-70085737D02*
X123099761Y-70180975D01*
X123099761Y-70180975D02*
X123004523Y-70228594D01*
X123004523Y-70228594D02*
X122814047Y-70276213D01*
X122814047Y-70276213D02*
X122671190Y-70276213D01*
X122671190Y-70276213D02*
X122480714Y-70228594D01*
X122480714Y-70228594D02*
X122385476Y-70180975D01*
X122385476Y-70180975D02*
X122290238Y-70085737D01*
X122290238Y-70085737D02*
X122242619Y-69942880D01*
X122242619Y-69942880D02*
X122242619Y-69847642D01*
X122242619Y-69847642D02*
X122290238Y-69704785D01*
X122290238Y-69704785D02*
X122337857Y-69657166D01*
X123242619Y-68704785D02*
X123242619Y-69276213D01*
X123242619Y-68990499D02*
X122242619Y-68990499D01*
X122242619Y-68990499D02*
X122385476Y-69085737D01*
X122385476Y-69085737D02*
X122480714Y-69180975D01*
X122480714Y-69180975D02*
X122528333Y-69276213D01*
D11*
%TO.C,J3*%
X150918526Y-75234332D02*
X151825669Y-75234332D01*
X151825669Y-75234332D02*
X152007097Y-75294809D01*
X152007097Y-75294809D02*
X152128050Y-75415761D01*
X152128050Y-75415761D02*
X152188526Y-75597190D01*
X152188526Y-75597190D02*
X152188526Y-75718142D01*
X150918526Y-74750523D02*
X150918526Y-73964332D01*
X150918526Y-73964332D02*
X151402335Y-74387666D01*
X151402335Y-74387666D02*
X151402335Y-74206237D01*
X151402335Y-74206237D02*
X151462811Y-74085285D01*
X151462811Y-74085285D02*
X151523288Y-74024809D01*
X151523288Y-74024809D02*
X151644240Y-73964332D01*
X151644240Y-73964332D02*
X151946621Y-73964332D01*
X151946621Y-73964332D02*
X152067573Y-74024809D01*
X152067573Y-74024809D02*
X152128050Y-74085285D01*
X152128050Y-74085285D02*
X152188526Y-74206237D01*
X152188526Y-74206237D02*
X152188526Y-74569094D01*
X152188526Y-74569094D02*
X152128050Y-74690047D01*
X152128050Y-74690047D02*
X152067573Y-74750523D01*
D10*
%TO.C,C2*%
X123176380Y-80303666D02*
X123224000Y-80351285D01*
X123224000Y-80351285D02*
X123271619Y-80494142D01*
X123271619Y-80494142D02*
X123271619Y-80589380D01*
X123271619Y-80589380D02*
X123224000Y-80732237D01*
X123224000Y-80732237D02*
X123128761Y-80827475D01*
X123128761Y-80827475D02*
X123033523Y-80875094D01*
X123033523Y-80875094D02*
X122843047Y-80922713D01*
X122843047Y-80922713D02*
X122700190Y-80922713D01*
X122700190Y-80922713D02*
X122509714Y-80875094D01*
X122509714Y-80875094D02*
X122414476Y-80827475D01*
X122414476Y-80827475D02*
X122319238Y-80732237D01*
X122319238Y-80732237D02*
X122271619Y-80589380D01*
X122271619Y-80589380D02*
X122271619Y-80494142D01*
X122271619Y-80494142D02*
X122319238Y-80351285D01*
X122319238Y-80351285D02*
X122366857Y-80303666D01*
X122366857Y-79922713D02*
X122319238Y-79875094D01*
X122319238Y-79875094D02*
X122271619Y-79779856D01*
X122271619Y-79779856D02*
X122271619Y-79541761D01*
X122271619Y-79541761D02*
X122319238Y-79446523D01*
X122319238Y-79446523D02*
X122366857Y-79398904D01*
X122366857Y-79398904D02*
X122462095Y-79351285D01*
X122462095Y-79351285D02*
X122557333Y-79351285D01*
X122557333Y-79351285D02*
X122700190Y-79398904D01*
X122700190Y-79398904D02*
X123271619Y-79970332D01*
X123271619Y-79970332D02*
X123271619Y-79351285D01*
%TO.C,U2*%
X132969095Y-68329619D02*
X132969095Y-69139142D01*
X132969095Y-69139142D02*
X133016714Y-69234380D01*
X133016714Y-69234380D02*
X133064333Y-69282000D01*
X133064333Y-69282000D02*
X133159571Y-69329619D01*
X133159571Y-69329619D02*
X133350047Y-69329619D01*
X133350047Y-69329619D02*
X133445285Y-69282000D01*
X133445285Y-69282000D02*
X133492904Y-69234380D01*
X133492904Y-69234380D02*
X133540523Y-69139142D01*
X133540523Y-69139142D02*
X133540523Y-68329619D01*
X133969095Y-68424857D02*
X134016714Y-68377238D01*
X134016714Y-68377238D02*
X134111952Y-68329619D01*
X134111952Y-68329619D02*
X134350047Y-68329619D01*
X134350047Y-68329619D02*
X134445285Y-68377238D01*
X134445285Y-68377238D02*
X134492904Y-68424857D01*
X134492904Y-68424857D02*
X134540523Y-68520095D01*
X134540523Y-68520095D02*
X134540523Y-68615333D01*
X134540523Y-68615333D02*
X134492904Y-68758190D01*
X134492904Y-68758190D02*
X133921476Y-69329619D01*
X133921476Y-69329619D02*
X134540523Y-69329619D01*
D11*
%TO.C,J2*%
X113004526Y-75190332D02*
X113911669Y-75190332D01*
X113911669Y-75190332D02*
X114093097Y-75250809D01*
X114093097Y-75250809D02*
X114214050Y-75371761D01*
X114214050Y-75371761D02*
X114274526Y-75553190D01*
X114274526Y-75553190D02*
X114274526Y-75674142D01*
X113125478Y-74646047D02*
X113065002Y-74585571D01*
X113065002Y-74585571D02*
X113004526Y-74464618D01*
X113004526Y-74464618D02*
X113004526Y-74162237D01*
X113004526Y-74162237D02*
X113065002Y-74041285D01*
X113065002Y-74041285D02*
X113125478Y-73980809D01*
X113125478Y-73980809D02*
X113246430Y-73920332D01*
X113246430Y-73920332D02*
X113367383Y-73920332D01*
X113367383Y-73920332D02*
X113548811Y-73980809D01*
X113548811Y-73980809D02*
X114274526Y-74706523D01*
X114274526Y-74706523D02*
X114274526Y-73920332D01*
D10*
%TO.C,U1*%
X123317095Y-74229619D02*
X123317095Y-75039142D01*
X123317095Y-75039142D02*
X123364714Y-75134380D01*
X123364714Y-75134380D02*
X123412333Y-75182000D01*
X123412333Y-75182000D02*
X123507571Y-75229619D01*
X123507571Y-75229619D02*
X123698047Y-75229619D01*
X123698047Y-75229619D02*
X123793285Y-75182000D01*
X123793285Y-75182000D02*
X123840904Y-75134380D01*
X123840904Y-75134380D02*
X123888523Y-75039142D01*
X123888523Y-75039142D02*
X123888523Y-74229619D01*
X124888523Y-75229619D02*
X124317095Y-75229619D01*
X124602809Y-75229619D02*
X124602809Y-74229619D01*
X124602809Y-74229619D02*
X124507571Y-74372476D01*
X124507571Y-74372476D02*
X124412333Y-74467714D01*
X124412333Y-74467714D02*
X124317095Y-74515333D01*
X121983761Y-77734380D02*
X121936142Y-77782000D01*
X121936142Y-77782000D02*
X121793285Y-77829619D01*
X121793285Y-77829619D02*
X121698047Y-77829619D01*
X121698047Y-77829619D02*
X121555190Y-77782000D01*
X121555190Y-77782000D02*
X121459952Y-77686761D01*
X121459952Y-77686761D02*
X121412333Y-77591523D01*
X121412333Y-77591523D02*
X121364714Y-77401047D01*
X121364714Y-77401047D02*
X121364714Y-77258190D01*
X121364714Y-77258190D02*
X121412333Y-77067714D01*
X121412333Y-77067714D02*
X121459952Y-76972476D01*
X121459952Y-76972476D02*
X121555190Y-76877238D01*
X121555190Y-76877238D02*
X121698047Y-76829619D01*
X121698047Y-76829619D02*
X121793285Y-76829619D01*
X121793285Y-76829619D02*
X121936142Y-76877238D01*
X121936142Y-76877238D02*
X121983761Y-76924857D01*
X122412333Y-77829619D02*
X122412333Y-76829619D01*
X122412333Y-77305809D02*
X122983761Y-77305809D01*
X122983761Y-77829619D02*
X122983761Y-76829619D01*
X123364714Y-76829619D02*
X123983761Y-76829619D01*
X123983761Y-76829619D02*
X123650428Y-77210571D01*
X123650428Y-77210571D02*
X123793285Y-77210571D01*
X123793285Y-77210571D02*
X123888523Y-77258190D01*
X123888523Y-77258190D02*
X123936142Y-77305809D01*
X123936142Y-77305809D02*
X123983761Y-77401047D01*
X123983761Y-77401047D02*
X123983761Y-77639142D01*
X123983761Y-77639142D02*
X123936142Y-77734380D01*
X123936142Y-77734380D02*
X123888523Y-77782000D01*
X123888523Y-77782000D02*
X123793285Y-77829619D01*
X123793285Y-77829619D02*
X123507571Y-77829619D01*
X123507571Y-77829619D02*
X123412333Y-77782000D01*
X123412333Y-77782000D02*
X123364714Y-77734380D01*
X124840904Y-77162952D02*
X124840904Y-77829619D01*
X124602809Y-76782000D02*
X124364714Y-77496285D01*
X124364714Y-77496285D02*
X124983761Y-77496285D01*
X125555190Y-76829619D02*
X125650428Y-76829619D01*
X125650428Y-76829619D02*
X125745666Y-76877238D01*
X125745666Y-76877238D02*
X125793285Y-76924857D01*
X125793285Y-76924857D02*
X125840904Y-77020095D01*
X125840904Y-77020095D02*
X125888523Y-77210571D01*
X125888523Y-77210571D02*
X125888523Y-77448666D01*
X125888523Y-77448666D02*
X125840904Y-77639142D01*
X125840904Y-77639142D02*
X125793285Y-77734380D01*
X125793285Y-77734380D02*
X125745666Y-77782000D01*
X125745666Y-77782000D02*
X125650428Y-77829619D01*
X125650428Y-77829619D02*
X125555190Y-77829619D01*
X125555190Y-77829619D02*
X125459952Y-77782000D01*
X125459952Y-77782000D02*
X125412333Y-77734380D01*
X125412333Y-77734380D02*
X125364714Y-77639142D01*
X125364714Y-77639142D02*
X125317095Y-77448666D01*
X125317095Y-77448666D02*
X125317095Y-77210571D01*
X125317095Y-77210571D02*
X125364714Y-77020095D01*
X125364714Y-77020095D02*
X125412333Y-76924857D01*
X125412333Y-76924857D02*
X125459952Y-76877238D01*
X125459952Y-76877238D02*
X125555190Y-76829619D01*
X126317095Y-77305809D02*
X126650428Y-77305809D01*
X126793285Y-77829619D02*
X126317095Y-77829619D01*
X126317095Y-77829619D02*
X126317095Y-76829619D01*
X126317095Y-76829619D02*
X126793285Y-76829619D01*
D12*
%TO.C,R1*%
X118899000Y-69696064D02*
X118899000Y-69241936D01*
X120369000Y-69696064D02*
X120369000Y-69241936D01*
%TO.C,R2*%
X118899000Y-79766936D02*
X118899000Y-80221064D01*
X120369000Y-79766936D02*
X120369000Y-80221064D01*
%TO.C,C1*%
X123725000Y-69751752D02*
X123725000Y-69229248D01*
X125195000Y-69751752D02*
X125195000Y-69229248D01*
D13*
%TO.C,J3*%
X147066000Y-80811000D02*
X162276000Y-80811000D01*
X162276000Y-80811000D02*
X162276000Y-68811000D01*
X162276000Y-68811000D02*
X147066000Y-68811000D01*
D14*
X140501000Y-71311000D02*
X140501000Y-71311000D01*
X140401000Y-71311000D02*
X140401000Y-71311000D01*
X140501000Y-71311000D02*
G75*
G03*
X140401000Y-71311000I-50000J0D01*
G01*
X140401000Y-71311000D02*
G75*
G03*
X140501000Y-71311000I50000J0D01*
G01*
D12*
%TO.C,C2*%
X123598000Y-79727248D02*
X123598000Y-80249752D01*
X125068000Y-79727248D02*
X125068000Y-80249752D01*
%TO.C,U2*%
X133731000Y-79827000D02*
X131781000Y-79827000D01*
X133731000Y-69707000D02*
X135681000Y-69707000D01*
X133731000Y-79827000D02*
X135681000Y-79827000D01*
X133731000Y-69707000D02*
X130281000Y-69707000D01*
D13*
%TO.C,J2*%
X110412000Y-70297000D02*
X109787000Y-70297000D01*
X109787000Y-70297000D02*
X109787000Y-79237000D01*
X109787000Y-79237000D02*
X110412000Y-79237000D01*
X114912000Y-70297000D02*
X113112000Y-70297000D01*
X114912000Y-79237000D02*
X113112000Y-79237000D01*
D14*
X118012000Y-71567000D02*
X118012000Y-71567000D01*
X118112000Y-71567000D02*
X118112000Y-71567000D01*
X118012000Y-71567000D02*
G75*
G03*
X118112000Y-71567000I50000J0D01*
G01*
X118112000Y-71567000D02*
G75*
G03*
X118012000Y-71567000I-50000J0D01*
G01*
D10*
%TO.C,U1*%
X122404000Y-73092000D02*
X122404000Y-73317000D01*
X122404000Y-73092000D02*
X125754000Y-73092000D01*
X122404000Y-73317000D02*
X121179000Y-73317000D01*
X122404000Y-76442000D02*
X122404000Y-76142000D01*
X122404000Y-76442000D02*
X125754000Y-76442000D01*
X125754000Y-73092000D02*
X125754000Y-73392000D01*
X125754000Y-76442000D02*
X125754000Y-76142000D01*
%TD*%
M02*
