%TF.GenerationSoftware,KiCad,Pcbnew,7.0.2*%
%TF.CreationDate,2024-06-22T12:15:53+01:00*%
%TF.ProjectId,USB HID,55534220-4849-4442-9e6b-696361645f70,rev?*%
%TF.SameCoordinates,Original*%
%TF.FileFunction,Copper,L2,Bot*%
%TF.FilePolarity,Positive*%
%FSLAX46Y46*%
G04 Gerber Fmt 4.6, Leading zero omitted, Abs format (unit mm)*
G04 Created by KiCad (PCBNEW 7.0.2) date 2024-06-22 12:15:53*
%MOMM*%
%LPD*%
G01*
G04 APERTURE LIST*
%TA.AperFunction,ComponentPad*%
%ADD10C,3.900000*%
%TD*%
%TA.AperFunction,ComponentPad*%
%ADD11C,2.280000*%
%TD*%
%TA.AperFunction,ComponentPad*%
%ADD12C,2.850000*%
%TD*%
%TA.AperFunction,ViaPad*%
%ADD13C,0.800000*%
%TD*%
%TA.AperFunction,Conductor*%
%ADD14C,0.200000*%
%TD*%
G04 APERTURE END LIST*
D10*
%TO.P,J3,MH1,MH1*%
%TO.N,GND*%
X144526000Y-68961000D03*
%TO.P,J3,MH2,MH2*%
X144526000Y-80661000D03*
%TD*%
D11*
%TO.P,J2,MH1,MH1*%
%TO.N,GND*%
X115887000Y-69147000D03*
%TO.P,J2,MH2,MH2*%
X115887000Y-80387000D03*
D12*
%TO.P,J2,MH3,MH3*%
X111887000Y-69147000D03*
%TO.P,J2,MH4,MH4*%
X111887000Y-80387000D03*
%TD*%
D13*
%TO.N,GND*%
X121031000Y-68453000D03*
X121031000Y-81026000D03*
%TO.N,DI-*%
X118591707Y-75116500D03*
X118607583Y-73679015D03*
X120269000Y-74803000D03*
%TD*%
D14*
%TO.N,DI-*%
X119955500Y-75116500D02*
X120269000Y-74803000D01*
X118591707Y-75116500D02*
X119955500Y-75116500D01*
X119145015Y-73679015D02*
X120269000Y-74803000D01*
X118607583Y-73679015D02*
X119145015Y-73679015D01*
%TD*%
%TA.AperFunction,Conductor*%
%TO.N,GND*%
G36*
X145705042Y-66004764D02*
G01*
X145784743Y-66009988D01*
X145962590Y-66022709D01*
X145977904Y-66024772D01*
X146090441Y-66047157D01*
X146231277Y-66077794D01*
X146244690Y-66081518D01*
X146358725Y-66120228D01*
X146362074Y-66121420D01*
X146489808Y-66169062D01*
X146501300Y-66174024D01*
X146611687Y-66228461D01*
X146616187Y-66230798D01*
X146733478Y-66294844D01*
X146742942Y-66300574D01*
X146846269Y-66369615D01*
X146851688Y-66373450D01*
X146957727Y-66452830D01*
X146965145Y-66458844D01*
X147058976Y-66541131D01*
X147064898Y-66546678D01*
X147158320Y-66640100D01*
X147163867Y-66646022D01*
X147246150Y-66739848D01*
X147252173Y-66747278D01*
X147289691Y-66797396D01*
X147331548Y-66853310D01*
X147335383Y-66858729D01*
X147404424Y-66962056D01*
X147410154Y-66971520D01*
X147474183Y-67088779D01*
X147476564Y-67093363D01*
X147530969Y-67203687D01*
X147535938Y-67215196D01*
X147583556Y-67342863D01*
X147584793Y-67346338D01*
X147623470Y-67460276D01*
X147627217Y-67473777D01*
X147657847Y-67614580D01*
X147662627Y-67638610D01*
X147680230Y-67727107D01*
X147682290Y-67742414D01*
X147695017Y-67920350D01*
X147700235Y-67999956D01*
X147700500Y-68008051D01*
X147700500Y-81525947D01*
X147700234Y-81534058D01*
X147695017Y-81613648D01*
X147682291Y-81791574D01*
X147680225Y-81806916D01*
X147657851Y-81919402D01*
X147627212Y-82060244D01*
X147623473Y-82073714D01*
X147584793Y-82187660D01*
X147583556Y-82191135D01*
X147535938Y-82318802D01*
X147530969Y-82330311D01*
X147476564Y-82440635D01*
X147474183Y-82445219D01*
X147410154Y-82562478D01*
X147404424Y-82571942D01*
X147335383Y-82675269D01*
X147331548Y-82680688D01*
X147252181Y-82786711D01*
X147246142Y-82794160D01*
X147163867Y-82887976D01*
X147158320Y-82893898D01*
X147064898Y-82987320D01*
X147058976Y-82992867D01*
X146965160Y-83075142D01*
X146957711Y-83081181D01*
X146851688Y-83160548D01*
X146846269Y-83164383D01*
X146742942Y-83233424D01*
X146733478Y-83239154D01*
X146616219Y-83303183D01*
X146611635Y-83305564D01*
X146501311Y-83359969D01*
X146489802Y-83364938D01*
X146362135Y-83412556D01*
X146358660Y-83413793D01*
X146244722Y-83452470D01*
X146231221Y-83456217D01*
X146090419Y-83486847D01*
X146043048Y-83496270D01*
X145977896Y-83509229D01*
X145962584Y-83511290D01*
X145784649Y-83524017D01*
X145761221Y-83525552D01*
X145705030Y-83529235D01*
X145696948Y-83529500D01*
X111986053Y-83529500D01*
X111977943Y-83529234D01*
X111898352Y-83524017D01*
X111720424Y-83511291D01*
X111705082Y-83509225D01*
X111647195Y-83497710D01*
X111592600Y-83486851D01*
X111451746Y-83456210D01*
X111438284Y-83452473D01*
X111438275Y-83452470D01*
X111367362Y-83428398D01*
X111324338Y-83413793D01*
X111320863Y-83412556D01*
X111193196Y-83364938D01*
X111181687Y-83359969D01*
X111116947Y-83328043D01*
X111071348Y-83305556D01*
X111066779Y-83303183D01*
X110949520Y-83239154D01*
X110940056Y-83233424D01*
X110836726Y-83164381D01*
X110831307Y-83160546D01*
X110725292Y-83081185D01*
X110717843Y-83075146D01*
X110717838Y-83075142D01*
X110624014Y-82992860D01*
X110618092Y-82987313D01*
X110524685Y-82893906D01*
X110519138Y-82887984D01*
X110482376Y-82846065D01*
X110436845Y-82794146D01*
X110430817Y-82786711D01*
X110351450Y-82680688D01*
X110347617Y-82675272D01*
X110278574Y-82571942D01*
X110272844Y-82562478D01*
X110208798Y-82445187D01*
X110206461Y-82440687D01*
X110152024Y-82330300D01*
X110147060Y-82318802D01*
X110141005Y-82302567D01*
X110099420Y-82191074D01*
X110098228Y-82187725D01*
X110059522Y-82073703D01*
X110055786Y-82060240D01*
X110025157Y-81919441D01*
X110002767Y-81806879D01*
X110000709Y-81791593D01*
X109987988Y-81613743D01*
X109982763Y-81534012D01*
X109982500Y-81525966D01*
X109982500Y-80670753D01*
X110002185Y-80603713D01*
X110054989Y-80557959D01*
X110124147Y-80548015D01*
X110187703Y-80577040D01*
X110225477Y-80635818D01*
X110227391Y-80643160D01*
X110281927Y-80882101D01*
X110373644Y-81115791D01*
X110499168Y-81333206D01*
X110616671Y-81480551D01*
X111129521Y-80967700D01*
X111131889Y-80971499D01*
X111265005Y-81111537D01*
X111308773Y-81142001D01*
X110793461Y-81657313D01*
X110839726Y-81700240D01*
X111047151Y-81841659D01*
X111273340Y-81950586D01*
X111513230Y-82024582D01*
X111761475Y-82062000D01*
X112012525Y-82062000D01*
X112260769Y-82024582D01*
X112500660Y-81950586D01*
X112726846Y-81841661D01*
X112934275Y-81700237D01*
X112980537Y-81657312D01*
X112465577Y-81142352D01*
X112579104Y-81044894D01*
X112641308Y-80964532D01*
X113157326Y-81480551D01*
X113274832Y-81333206D01*
X113400355Y-81115791D01*
X113492072Y-80882101D01*
X113547936Y-80637344D01*
X113566697Y-80386999D01*
X113547936Y-80136655D01*
X113492072Y-79891898D01*
X113400355Y-79658208D01*
X113274831Y-79440793D01*
X113224486Y-79377663D01*
X113198077Y-79312976D01*
X113210832Y-79244281D01*
X113258702Y-79193387D01*
X113321385Y-79176349D01*
X114872841Y-79175795D01*
X114939885Y-79195456D01*
X114985659Y-79248243D01*
X114996645Y-79307477D01*
X114995920Y-79319143D01*
X115444901Y-79768124D01*
X115395156Y-79800843D01*
X115273236Y-79930070D01*
X115265936Y-79942713D01*
X114818548Y-79495325D01*
X114818546Y-79495325D01*
X114786338Y-79530313D01*
X114660340Y-79723168D01*
X114567809Y-79934119D01*
X114511258Y-80157433D01*
X114492235Y-80387000D01*
X114511258Y-80616566D01*
X114567809Y-80839880D01*
X114660341Y-81050834D01*
X114786333Y-81243681D01*
X114818547Y-81278673D01*
X114818548Y-81278673D01*
X115268422Y-80828799D01*
X115330433Y-80912094D01*
X115443666Y-81007109D01*
X114995921Y-81454854D01*
X115124136Y-81554649D01*
X115326731Y-81664288D01*
X115544604Y-81739084D01*
X115771821Y-81777000D01*
X116002179Y-81777000D01*
X116229395Y-81739084D01*
X116447268Y-81664288D01*
X116649863Y-81554649D01*
X116778077Y-81454855D01*
X116778078Y-81454854D01*
X116329098Y-81005875D01*
X116378844Y-80973157D01*
X116500764Y-80843930D01*
X116508063Y-80831286D01*
X116955450Y-81278674D01*
X116955451Y-81278673D01*
X116987665Y-81243681D01*
X117113658Y-81050834D01*
X117206190Y-80839880D01*
X117250461Y-80665058D01*
X142321546Y-80665058D01*
X142339876Y-80944720D01*
X142340934Y-80952756D01*
X142395609Y-81227631D01*
X142397712Y-81235478D01*
X142487798Y-81500862D01*
X142490899Y-81508351D01*
X142614860Y-81759719D01*
X142618910Y-81766734D01*
X142774618Y-81999766D01*
X142779559Y-82006206D01*
X142884432Y-82125789D01*
X143519776Y-81490445D01*
X143526338Y-81499816D01*
X143687184Y-81660662D01*
X143696553Y-81667222D01*
X143061209Y-82302566D01*
X143061209Y-82302567D01*
X143180793Y-82407440D01*
X143187233Y-82412381D01*
X143420265Y-82568089D01*
X143427280Y-82572139D01*
X143678648Y-82696100D01*
X143686137Y-82699201D01*
X143951521Y-82789287D01*
X143959368Y-82791390D01*
X144234243Y-82846065D01*
X144242279Y-82847123D01*
X144521942Y-82865454D01*
X144530058Y-82865454D01*
X144809720Y-82847123D01*
X144817756Y-82846065D01*
X145092631Y-82791390D01*
X145100478Y-82789287D01*
X145365862Y-82699201D01*
X145373351Y-82696100D01*
X145624719Y-82572139D01*
X145631734Y-82568089D01*
X145864766Y-82412381D01*
X145871205Y-82407440D01*
X145990789Y-82302567D01*
X145990789Y-82302566D01*
X145355445Y-81667222D01*
X145364816Y-81660662D01*
X145525662Y-81499816D01*
X145532222Y-81490446D01*
X146167566Y-82125789D01*
X146167567Y-82125789D01*
X146272440Y-82006205D01*
X146277381Y-81999766D01*
X146433089Y-81766734D01*
X146437139Y-81759719D01*
X146561100Y-81508351D01*
X146564201Y-81500862D01*
X146654287Y-81235478D01*
X146656390Y-81227631D01*
X146711065Y-80952756D01*
X146712123Y-80944720D01*
X146730454Y-80665058D01*
X146730454Y-80656941D01*
X146712123Y-80377279D01*
X146711065Y-80369243D01*
X146656390Y-80094368D01*
X146654287Y-80086521D01*
X146564201Y-79821137D01*
X146561100Y-79813648D01*
X146437139Y-79562280D01*
X146433089Y-79555265D01*
X146277381Y-79322233D01*
X146272440Y-79315793D01*
X146167566Y-79196209D01*
X145532222Y-79831553D01*
X145525662Y-79822184D01*
X145364816Y-79661338D01*
X145355445Y-79654776D01*
X145990789Y-79019432D01*
X145990789Y-79019431D01*
X145871206Y-78914559D01*
X145864766Y-78909618D01*
X145631734Y-78753910D01*
X145624719Y-78749860D01*
X145373351Y-78625899D01*
X145365862Y-78622798D01*
X145100478Y-78532712D01*
X145092631Y-78530609D01*
X144817756Y-78475934D01*
X144809720Y-78474876D01*
X144530058Y-78456546D01*
X144521942Y-78456546D01*
X144242279Y-78474876D01*
X144234243Y-78475934D01*
X143959368Y-78530609D01*
X143951521Y-78532712D01*
X143686137Y-78622798D01*
X143678648Y-78625899D01*
X143427280Y-78749860D01*
X143420265Y-78753910D01*
X143187227Y-78909622D01*
X143180800Y-78914554D01*
X143061208Y-79019431D01*
X143061208Y-79019432D01*
X143696553Y-79654777D01*
X143687184Y-79661338D01*
X143526338Y-79822184D01*
X143519777Y-79831553D01*
X142884432Y-79196208D01*
X142884431Y-79196208D01*
X142779554Y-79315800D01*
X142774622Y-79322227D01*
X142618910Y-79555265D01*
X142614860Y-79562280D01*
X142490899Y-79813648D01*
X142487798Y-79821137D01*
X142397712Y-80086521D01*
X142395609Y-80094368D01*
X142340934Y-80369243D01*
X142339876Y-80377279D01*
X142321546Y-80656941D01*
X142321546Y-80665058D01*
X117250461Y-80665058D01*
X117262741Y-80616566D01*
X117281764Y-80387000D01*
X117262741Y-80157433D01*
X117206190Y-79934119D01*
X117113658Y-79723165D01*
X116987666Y-79530318D01*
X116955451Y-79495325D01*
X116955449Y-79495325D01*
X116505576Y-79945198D01*
X116443567Y-79861906D01*
X116330332Y-79766890D01*
X116778077Y-79319144D01*
X116649863Y-79219350D01*
X116447268Y-79109711D01*
X116289237Y-79055458D01*
X116232221Y-79015072D01*
X116206091Y-78950272D01*
X116205500Y-78938177D01*
X116205500Y-77060999D01*
X143720434Y-77060999D01*
X143740631Y-77240251D01*
X143740631Y-77240253D01*
X143740632Y-77240255D01*
X143800211Y-77410522D01*
X143800212Y-77410523D01*
X143896185Y-77563264D01*
X144023735Y-77690814D01*
X144023737Y-77690815D01*
X144023738Y-77690816D01*
X144176478Y-77786789D01*
X144346745Y-77846368D01*
X144481046Y-77861500D01*
X144484530Y-77861500D01*
X144567470Y-77861500D01*
X144570954Y-77861500D01*
X144705255Y-77846368D01*
X144875522Y-77786789D01*
X145028262Y-77690816D01*
X145155816Y-77563262D01*
X145251789Y-77410522D01*
X145311368Y-77240255D01*
X145331565Y-77061000D01*
X145311368Y-76881745D01*
X145251789Y-76711478D01*
X145155816Y-76558738D01*
X145155815Y-76558737D01*
X145155814Y-76558735D01*
X145028264Y-76431185D01*
X144965867Y-76391979D01*
X144875522Y-76335211D01*
X144705255Y-76275632D01*
X144705251Y-76275631D01*
X144705250Y-76275631D01*
X144574420Y-76260890D01*
X144574410Y-76260889D01*
X144570954Y-76260500D01*
X144481046Y-76260500D01*
X144477590Y-76260889D01*
X144477579Y-76260890D01*
X144346749Y-76275631D01*
X144346746Y-76275631D01*
X144346745Y-76275632D01*
X144176478Y-76335211D01*
X144176476Y-76335211D01*
X144176476Y-76335212D01*
X144023735Y-76431185D01*
X143896185Y-76558735D01*
X143800212Y-76711476D01*
X143740631Y-76881748D01*
X143720434Y-77060999D01*
X116205500Y-77060999D01*
X116205500Y-75116499D01*
X117986024Y-75116499D01*
X118006663Y-75273262D01*
X118067170Y-75419340D01*
X118163424Y-75544782D01*
X118288866Y-75641035D01*
X118288866Y-75641036D01*
X118434945Y-75701544D01*
X118591707Y-75722182D01*
X118748469Y-75701544D01*
X118894548Y-75641036D01*
X119019989Y-75544782D01*
X119080813Y-75465513D01*
X119137240Y-75424311D01*
X119179189Y-75417000D01*
X119886257Y-75417000D01*
X119903077Y-75419743D01*
X119913262Y-75419272D01*
X119913265Y-75419273D01*
X119959580Y-75417131D01*
X119965305Y-75417000D01*
X119984324Y-75417000D01*
X119998818Y-75415317D01*
X120025492Y-75414085D01*
X120031830Y-75411286D01*
X120059133Y-75402832D01*
X120088721Y-75397302D01*
X120089063Y-75399136D01*
X120121802Y-75390116D01*
X120135900Y-75391159D01*
X120269000Y-75408682D01*
X120425762Y-75388044D01*
X120571841Y-75327536D01*
X120697282Y-75231282D01*
X120793536Y-75105841D01*
X120854044Y-74959762D01*
X120874682Y-74803000D01*
X120854044Y-74646238D01*
X120793536Y-74500159D01*
X120774938Y-74475922D01*
X120697282Y-74374717D01*
X120571840Y-74278463D01*
X120425762Y-74217956D01*
X120268999Y-74197317D01*
X120169938Y-74210359D01*
X120100902Y-74199593D01*
X120066072Y-74175101D01*
X119406465Y-73515494D01*
X119396512Y-73501660D01*
X119354696Y-73463539D01*
X119350555Y-73459584D01*
X119337125Y-73446154D01*
X119325693Y-73437098D01*
X119305949Y-73419099D01*
X119299483Y-73416594D01*
X119274207Y-73403271D01*
X119268496Y-73399359D01*
X119268495Y-73399358D01*
X119268493Y-73399357D01*
X119242499Y-73393243D01*
X119226102Y-73388166D01*
X119201188Y-73378515D01*
X119195065Y-73378515D01*
X119128026Y-73358830D01*
X119096689Y-73330001D01*
X119063531Y-73286789D01*
X119035865Y-73250733D01*
X118957780Y-73190816D01*
X118910423Y-73154478D01*
X118764345Y-73093971D01*
X118607583Y-73073332D01*
X118450820Y-73093971D01*
X118304742Y-73154478D01*
X118179300Y-73250732D01*
X118083046Y-73376174D01*
X118022539Y-73522252D01*
X118001900Y-73679014D01*
X118022539Y-73835777D01*
X118083046Y-73981855D01*
X118179300Y-74107297D01*
X118215877Y-74135363D01*
X118304742Y-74203551D01*
X118450821Y-74264059D01*
X118524610Y-74273773D01*
X118588506Y-74302039D01*
X118600083Y-74319591D01*
X118608554Y-74306061D01*
X118671760Y-74276283D01*
X118674634Y-74275869D01*
X118764345Y-74264059D01*
X118910424Y-74203551D01*
X119013226Y-74124667D01*
X119078393Y-74099474D01*
X119146838Y-74113512D01*
X119176392Y-74135363D01*
X119641101Y-74600072D01*
X119674586Y-74661395D01*
X119676360Y-74703935D01*
X119675801Y-74708182D01*
X119647536Y-74772079D01*
X119589213Y-74810552D01*
X119552861Y-74816000D01*
X119179189Y-74816000D01*
X119112150Y-74796315D01*
X119080813Y-74767486D01*
X119019988Y-74688217D01*
X118894547Y-74591963D01*
X118748469Y-74531456D01*
X118674679Y-74521741D01*
X118610782Y-74493474D01*
X118599205Y-74475922D01*
X118590736Y-74489452D01*
X118527531Y-74519231D01*
X118524610Y-74519651D01*
X118434944Y-74531456D01*
X118288866Y-74591963D01*
X118163424Y-74688217D01*
X118067170Y-74813659D01*
X118006663Y-74959737D01*
X117986024Y-75116499D01*
X116205500Y-75116499D01*
X116205500Y-72560999D01*
X143720434Y-72560999D01*
X143740631Y-72740251D01*
X143740631Y-72740253D01*
X143740632Y-72740255D01*
X143800211Y-72910522D01*
X143800212Y-72910523D01*
X143896185Y-73063264D01*
X144023735Y-73190814D01*
X144023737Y-73190815D01*
X144023738Y-73190816D01*
X144176478Y-73286789D01*
X144346745Y-73346368D01*
X144481046Y-73361500D01*
X144484530Y-73361500D01*
X144567470Y-73361500D01*
X144570954Y-73361500D01*
X144705255Y-73346368D01*
X144875522Y-73286789D01*
X145028262Y-73190816D01*
X145155816Y-73063262D01*
X145251789Y-72910522D01*
X145311368Y-72740255D01*
X145331565Y-72561000D01*
X145311368Y-72381745D01*
X145251789Y-72211478D01*
X145155816Y-72058738D01*
X145155815Y-72058737D01*
X145155814Y-72058735D01*
X145028264Y-71931185D01*
X144965867Y-71891979D01*
X144875522Y-71835211D01*
X144705255Y-71775632D01*
X144705251Y-71775631D01*
X144705250Y-71775631D01*
X144574420Y-71760890D01*
X144574410Y-71760889D01*
X144570954Y-71760500D01*
X144481046Y-71760500D01*
X144477590Y-71760889D01*
X144477579Y-71760890D01*
X144346749Y-71775631D01*
X144346746Y-71775631D01*
X144346745Y-71775632D01*
X144176478Y-71835211D01*
X144176476Y-71835211D01*
X144176476Y-71835212D01*
X144023735Y-71931185D01*
X143896185Y-72058735D01*
X143800212Y-72211476D01*
X143740631Y-72381748D01*
X143720434Y-72560999D01*
X116205500Y-72560999D01*
X116205500Y-70595822D01*
X116225185Y-70528783D01*
X116277989Y-70483028D01*
X116289237Y-70478541D01*
X116447268Y-70424288D01*
X116649863Y-70314649D01*
X116778077Y-70214855D01*
X116778078Y-70214854D01*
X116329098Y-69765875D01*
X116378844Y-69733157D01*
X116500764Y-69603930D01*
X116508063Y-69591286D01*
X116955450Y-70038674D01*
X116955451Y-70038673D01*
X116987665Y-70003681D01*
X117113658Y-69810834D01*
X117206190Y-69599880D01*
X117262741Y-69376566D01*
X117281764Y-69147000D01*
X117266687Y-68965058D01*
X142321546Y-68965058D01*
X142339876Y-69244720D01*
X142340934Y-69252756D01*
X142395609Y-69527631D01*
X142397712Y-69535478D01*
X142487798Y-69800862D01*
X142490899Y-69808351D01*
X142614860Y-70059719D01*
X142618910Y-70066734D01*
X142774618Y-70299766D01*
X142779559Y-70306206D01*
X142884432Y-70425789D01*
X143519776Y-69790445D01*
X143526338Y-69799816D01*
X143687184Y-69960662D01*
X143696553Y-69967222D01*
X143061209Y-70602566D01*
X143061209Y-70602567D01*
X143180793Y-70707440D01*
X143187233Y-70712381D01*
X143420265Y-70868089D01*
X143427280Y-70872139D01*
X143678648Y-70996100D01*
X143686137Y-70999201D01*
X143951521Y-71089287D01*
X143959368Y-71091390D01*
X144234243Y-71146065D01*
X144242279Y-71147123D01*
X144521942Y-71165454D01*
X144530058Y-71165454D01*
X144809720Y-71147123D01*
X144817756Y-71146065D01*
X145092631Y-71091390D01*
X145100478Y-71089287D01*
X145365862Y-70999201D01*
X145373351Y-70996100D01*
X145624719Y-70872139D01*
X145631734Y-70868089D01*
X145864766Y-70712381D01*
X145871205Y-70707440D01*
X145990789Y-70602567D01*
X145990789Y-70602566D01*
X145355445Y-69967222D01*
X145364816Y-69960662D01*
X145525662Y-69799816D01*
X145532222Y-69790446D01*
X146167566Y-70425789D01*
X146167567Y-70425789D01*
X146272440Y-70306205D01*
X146277381Y-70299766D01*
X146433089Y-70066734D01*
X146437139Y-70059719D01*
X146561100Y-69808351D01*
X146564201Y-69800862D01*
X146654287Y-69535478D01*
X146656390Y-69527631D01*
X146711065Y-69252756D01*
X146712123Y-69244720D01*
X146730454Y-68965058D01*
X146730454Y-68956941D01*
X146712123Y-68677279D01*
X146711065Y-68669243D01*
X146656390Y-68394368D01*
X146654287Y-68386521D01*
X146564201Y-68121137D01*
X146561100Y-68113648D01*
X146437139Y-67862280D01*
X146433089Y-67855265D01*
X146277381Y-67622233D01*
X146272440Y-67615793D01*
X146167566Y-67496209D01*
X145532222Y-68131552D01*
X145525662Y-68122184D01*
X145364816Y-67961338D01*
X145355444Y-67954776D01*
X145990789Y-67319432D01*
X145990789Y-67319431D01*
X145871206Y-67214559D01*
X145864766Y-67209618D01*
X145631734Y-67053910D01*
X145624719Y-67049860D01*
X145373351Y-66925899D01*
X145365862Y-66922798D01*
X145100478Y-66832712D01*
X145092631Y-66830609D01*
X144817756Y-66775934D01*
X144809720Y-66774876D01*
X144530058Y-66756546D01*
X144521942Y-66756546D01*
X144242279Y-66774876D01*
X144234243Y-66775934D01*
X143959368Y-66830609D01*
X143951521Y-66832712D01*
X143686137Y-66922798D01*
X143678648Y-66925899D01*
X143427280Y-67049860D01*
X143420265Y-67053910D01*
X143187227Y-67209622D01*
X143180800Y-67214554D01*
X143061208Y-67319431D01*
X143061208Y-67319432D01*
X143696553Y-67954777D01*
X143687184Y-67961338D01*
X143526338Y-68122184D01*
X143519777Y-68131553D01*
X142884432Y-67496208D01*
X142884431Y-67496208D01*
X142779554Y-67615800D01*
X142774622Y-67622227D01*
X142618910Y-67855265D01*
X142614860Y-67862280D01*
X142490899Y-68113648D01*
X142487798Y-68121137D01*
X142397712Y-68386521D01*
X142395609Y-68394368D01*
X142340934Y-68669243D01*
X142339876Y-68677279D01*
X142321546Y-68956941D01*
X142321546Y-68965058D01*
X117266687Y-68965058D01*
X117262741Y-68917433D01*
X117206190Y-68694119D01*
X117113658Y-68483165D01*
X116987666Y-68290318D01*
X116955451Y-68255325D01*
X116955449Y-68255325D01*
X116505576Y-68705198D01*
X116443567Y-68621906D01*
X116330332Y-68526890D01*
X116778077Y-68079144D01*
X116649863Y-67979350D01*
X116447268Y-67869711D01*
X116229395Y-67794915D01*
X116002179Y-67757000D01*
X115771821Y-67757000D01*
X115544604Y-67794915D01*
X115326731Y-67869711D01*
X115124137Y-67979349D01*
X114995921Y-68079143D01*
X114995921Y-68079144D01*
X115444901Y-68528124D01*
X115395156Y-68560843D01*
X115273236Y-68690070D01*
X115265936Y-68702713D01*
X114818548Y-68255325D01*
X114818546Y-68255325D01*
X114786338Y-68290313D01*
X114660340Y-68483168D01*
X114567809Y-68694119D01*
X114511258Y-68917433D01*
X114492235Y-69147000D01*
X114511258Y-69376566D01*
X114567809Y-69599880D01*
X114660341Y-69810834D01*
X114786333Y-70003681D01*
X114818547Y-70038673D01*
X114818548Y-70038673D01*
X115268422Y-69588799D01*
X115330433Y-69672094D01*
X115443666Y-69767109D01*
X114995920Y-70214855D01*
X114996645Y-70226519D01*
X114981152Y-70294650D01*
X114931284Y-70343588D01*
X114872839Y-70358202D01*
X113321390Y-70357648D01*
X113254357Y-70337939D01*
X113208621Y-70285119D01*
X113198702Y-70215957D01*
X113224488Y-70156334D01*
X113274831Y-70093206D01*
X113400355Y-69875791D01*
X113492072Y-69642101D01*
X113547936Y-69397344D01*
X113566697Y-69146999D01*
X113547936Y-68896655D01*
X113492072Y-68651898D01*
X113400355Y-68418208D01*
X113274831Y-68200793D01*
X113157327Y-68053447D01*
X112644477Y-68566296D01*
X112642111Y-68562501D01*
X112508995Y-68422463D01*
X112465224Y-68391997D01*
X112980536Y-67876686D01*
X112934276Y-67833761D01*
X112726846Y-67692339D01*
X112500660Y-67583413D01*
X112260769Y-67509417D01*
X112012525Y-67472000D01*
X111761475Y-67472000D01*
X111513230Y-67509417D01*
X111273340Y-67583413D01*
X111047154Y-67692338D01*
X110839724Y-67833762D01*
X110793461Y-67876686D01*
X111308422Y-68391647D01*
X111194896Y-68489106D01*
X111132691Y-68569467D01*
X110616671Y-68053447D01*
X110499170Y-68200790D01*
X110373644Y-68418209D01*
X110281927Y-68651898D01*
X110227391Y-68890839D01*
X110193282Y-68951817D01*
X110131621Y-68984675D01*
X110061984Y-68978980D01*
X110006480Y-68936540D01*
X109982732Y-68870830D01*
X109982500Y-68863246D01*
X109982500Y-68008065D01*
X109982765Y-67999956D01*
X109982766Y-67999943D01*
X109987991Y-67920208D01*
X110000709Y-67742405D01*
X110002770Y-67727101D01*
X110025163Y-67614523D01*
X110055795Y-67473717D01*
X110059515Y-67460318D01*
X110098243Y-67346230D01*
X110099404Y-67342967D01*
X110147068Y-67215177D01*
X110152017Y-67203713D01*
X110206481Y-67093272D01*
X110208777Y-67088851D01*
X110272855Y-66971501D01*
X110278562Y-66962075D01*
X110347639Y-66858694D01*
X110351425Y-66853344D01*
X110430850Y-66747246D01*
X110436823Y-66739878D01*
X110519161Y-66645989D01*
X110524648Y-66640131D01*
X110618131Y-66546648D01*
X110623989Y-66541161D01*
X110717878Y-66458823D01*
X110725246Y-66452850D01*
X110831344Y-66373425D01*
X110836694Y-66369639D01*
X110940075Y-66300562D01*
X110949501Y-66294855D01*
X111066851Y-66230777D01*
X111071272Y-66228481D01*
X111181713Y-66174017D01*
X111193177Y-66169068D01*
X111320967Y-66121404D01*
X111324230Y-66120243D01*
X111438305Y-66081519D01*
X111451754Y-66077787D01*
X111592546Y-66047159D01*
X111705125Y-66024766D01*
X111720402Y-66022709D01*
X111898208Y-66009991D01*
X111974267Y-66005006D01*
X111977958Y-66004765D01*
X111986063Y-66004500D01*
X145696935Y-66004500D01*
X145705042Y-66004764D01*
G37*
%TD.AperFunction*%
%TD*%
M02*
